<svg width="358" height="42" viewBox="0 0 358 42" fill="none" xmlns="http://www.w3.org/2000/svg">
<mask id="mask0_0_99" style="mask-type:luminance" maskUnits="userSpaceOnUse" x="0" y="0" width="358" height="42">
<path fill-rule="evenodd" clip-rule="evenodd" d="M0 0.16362L357.975 0.16362V41.5999H0V0.16362L0 0.16362Z" fill="white"/>
</mask>
<g mask="url(#mask0_0_99)">
<path fill-rule="evenodd" clip-rule="evenodd" d="M352.959 41.5999H5.01623C2.24571 41.5999 0 39.3812 0 36.6442V5.11972C0 2.38248 2.24571 0.163544 5.01623 0.163544H352.959C355.73 0.163544 357.975 2.38248 357.975 5.11972V36.6442C357.975 39.3812 355.73 41.5999 352.959 41.5999" fill="black"/>
</g>
<path fill-rule="evenodd" clip-rule="evenodd" d="M23.7335 12.883V28.1172H27.4721C28.3493 28.1172 29.0672 27.9573 29.6256 27.6367C30.1836 27.3164 30.6173 26.8269 30.9266 26.1669C31.2356 25.5077 31.45 24.6689 31.5697 23.6515C31.6893 22.6341 31.749 21.4285 31.749 20.0336C31.749 18.6397 31.6893 17.4809 31.5697 16.5572C31.45 15.6344 31.2356 14.8993 30.9266 14.3527C30.6173 13.8064 30.1836 13.4249 29.6256 13.2082C29.0672 12.9916 28.3493 12.883 27.4721 12.883H23.7335ZM26.9936 10C28.8877 10 30.5275 10.1228 31.9136 10.3675C33.2993 10.6125 34.4409 11.0883 35.3382 11.7948C36.2355 12.5015 36.9032 13.5096 37.342 14.819C37.7803 16.1289 38 17.8389 38 19.9488C38 22.135 37.7803 23.9389 37.342 25.3616C36.9032 26.7843 36.2355 27.9148 35.3382 28.7532C34.4409 29.5918 33.2993 30.1761 31.9136 30.5055C30.5275 30.8353 28.8877 31 26.9936 31H15V28.6825C16.7746 28.6825 17.662 28.2494 17.662 27.3822V13.6178C17.662 12.7514 16.7746 12.3177 15 12.3177V10H26.9936Z" fill="white"/>
<path fill-rule="evenodd" clip-rule="evenodd" d="M43.82 23.0862H49.9552L46.9877 13.8721L43.82 23.0862ZM57.6886 27.8343C57.8784 28.3998 58.649 28.6825 60 28.6825V31H48.5571V28.6825H50.7543C51.3059 28.6825 51.5819 28.5126 51.5819 28.1735C51.5819 28.0986 51.5532 27.9855 51.4963 27.8343L50.6973 25.5734H42.9926L42.2791 27.6084C42.2221 27.7592 42.1934 27.8818 42.1934 27.9758C42.1934 28.4468 42.6215 28.6825 43.4776 28.6825H45.1041V31H37.0285L37 28.6825C37.8176 28.6825 38.4125 28.6117 38.7834 28.4705C39.1543 28.3292 39.3872 28.1268 39.4825 27.8627L45.8746 10H51.6389L57.6886 27.8343Z" fill="white"/>
<path fill-rule="evenodd" clip-rule="evenodd" d="M73.5472 12.3177C71.427 12.3177 70.3668 12.7514 70.3668 13.6178V28.117H75.2665C76.4886 28.117 77.4485 27.7171 78.146 26.9161C78.8431 26.1152 79.2779 24.7255 79.4497 22.7469L82 22.9448L81.3122 31H62V28.6825C63.7001 28.6825 64.5503 28.2492 64.5503 27.3822V13.6178C64.5503 12.7514 63.7001 12.3177 62 12.3177V10H73.5472V12.3177Z" fill="white"/>
<path fill-rule="evenodd" clip-rule="evenodd" d="M112 12.3177C110.284 12.3177 109.426 12.7514 109.426 13.6178V27.3822C109.426 28.2492 110.284 28.6825 112 28.6825V31H101.332V28.6825C103.029 28.6825 103.878 28.2492 103.878 27.3822V13.9006L98.5582 31H93.8965L88.5769 13.9006V27.3822C88.5769 28.2492 89.4251 28.6825 91.1222 28.6825V31H83V28.6825C84.6969 28.6825 85.5453 28.2492 85.5453 27.3822V13.6178C85.5453 12.7514 84.6969 12.3177 83 12.3177V10H93.4389L97.7573 24.6407L102.076 10H112V12.3177Z" fill="white"/>
<path fill-rule="evenodd" clip-rule="evenodd" d="M118.82 23.0862H124.955L121.988 13.8721L118.82 23.0862ZM132.689 27.8343C132.878 28.3998 133.649 28.6825 135 28.6825V31H123.557V28.6825H125.754C126.306 28.6825 126.582 28.5126 126.582 28.1735C126.582 28.0986 126.553 27.9855 126.496 27.8343L125.697 25.5734H117.993L117.279 27.6084C117.222 27.7592 117.193 27.8818 117.193 27.9758C117.193 28.4468 117.621 28.6825 118.478 28.6825H120.104V31H112.028L112 28.6825C112.818 28.6825 113.413 28.6117 113.783 28.4705C114.154 28.3292 114.387 28.1268 114.482 27.8627L120.875 10H126.639L132.689 27.8343Z" fill="white"/>
<path fill-rule="evenodd" clip-rule="evenodd" d="M154 18.6487L151.606 18.7335C151.514 16.6045 151.188 15.0972 150.628 14.2113C150.069 13.3258 149.257 12.883 148.193 12.883H146.321V27.3822C146.321 28.2492 147.147 28.6825 148.798 28.6825V31H138.257V28.6825C139.89 28.6825 140.707 28.2492 140.707 27.3822V12.883H138.807C137.743 12.883 136.936 13.3258 136.385 14.2113C135.835 15.0972 135.505 16.6045 135.395 18.7335L133 18.6487V10H154V18.6487Z" fill="white"/>
<path fill-rule="evenodd" clip-rule="evenodd" d="M167 12.3177C165.291 12.3177 164.437 12.7514 164.437 13.6178V27.3822C164.437 28.2492 165.291 28.6825 167 28.6825V31H156V28.6825C157.728 28.6825 158.592 28.2492 158.592 27.3822V13.6178C158.592 12.7514 157.728 12.3177 156 12.3177V10H167V12.3177Z" fill="white"/>
<path fill-rule="evenodd" clip-rule="evenodd" d="M178.833 12.1458C177.06 12.1458 175.744 12.7347 174.885 13.9117C174.026 15.0889 173.596 16.9831 173.596 19.5948C173.596 21.4942 173.707 23.0425 173.929 24.2393C174.151 25.4367 174.464 26.3713 174.871 27.0439C175.277 27.7168 175.771 28.1768 176.353 28.4238C176.935 28.6714 177.576 28.7949 178.278 28.7949C179.202 28.7949 179.991 28.6514 180.647 28.3644C181.303 28.0779 181.839 27.6129 182.254 26.9698C182.67 26.3269 182.974 25.491 183.168 24.4619C183.362 23.4333 183.459 22.1768 183.459 20.693C183.459 18.9717 183.348 17.5619 183.127 16.4638C182.905 15.3659 182.591 14.4956 182.185 13.8525C181.778 13.2097 181.289 12.7646 180.716 12.5167C180.144 12.2697 179.516 12.1458 178.833 12.1458M178.694 9C180.19 9 181.571 9.19296 182.836 9.57868C184.101 9.96461 185.191 10.6027 186.105 11.4929C187.019 12.3834 187.73 13.5658 188.238 15.0394C188.746 16.5135 189 18.329 189 20.4852C189 22.2659 188.783 23.8682 188.349 25.2928C187.915 26.7174 187.255 27.9244 186.368 28.9134C185.482 29.9031 184.369 30.6643 183.03 31.1987C181.69 31.733 180.107 32 178.278 32C176.782 32 175.406 31.8116 174.151 31.4361C172.894 31.0604 171.81 30.4419 170.895 29.5812C169.981 28.7207 169.27 27.5831 168.762 26.1683C168.254 24.754 168 23.0179 168 20.96C168 19.1006 168.198 17.4284 168.596 15.9446C168.993 14.4608 169.621 13.2045 170.48 12.1757C171.338 11.147 172.442 10.3605 173.79 9.81629C175.138 9.27244 176.773 9 178.694 9" fill="white"/>
<path fill-rule="evenodd" clip-rule="evenodd" d="M214 12.3177C212.305 12.3177 211.457 12.7514 211.457 13.6178V31H204.543L195.6 15.1723V27.3822C195.6 28.2492 196.447 28.6825 198.143 28.6825V31H190V28.6825C191.695 28.6825 192.543 28.2492 192.543 27.3822V13.6178C192.543 12.7514 191.695 12.3177 190 12.3177V10H199.286L208.429 26.2235V13.6178C208.429 12.7514 207.581 12.3177 205.886 12.3177V10H214V12.3177Z" fill="white"/>
<path fill-rule="evenodd" clip-rule="evenodd" d="M255 12.3459C254.132 12.3459 253.537 12.4687 253.216 12.7135C252.895 12.9586 252.678 13.2978 252.565 13.7311L247.779 31H242.285L238.773 19.101L235.234 31H229.74L225.237 13.7591C225.142 13.4015 224.897 13.0715 224.501 12.7701C224.104 12.4687 223.604 12.3177 223 12.3177V10H233.11V12.3177H231.495C230.986 12.3177 230.731 12.4971 230.731 12.8549L234.101 27.1561L237.924 13.4483C237.886 13.1283 237.707 12.8597 237.386 12.6427C237.065 12.4264 236.583 12.3177 235.941 12.3177V10H245.06V12.3177H243.446C242.955 12.3177 242.71 12.4971 242.71 12.8549L246.646 27.1561L250.129 13.3919C250.148 13.3542 250.157 13.2411 250.157 13.0526C250.157 12.5629 249.789 12.3177 249.053 12.3177H247.92V10H255V12.3459Z" fill="white"/>
<path fill-rule="evenodd" clip-rule="evenodd" d="M258.82 23.0862H264.955L261.988 13.8721L258.82 23.0862ZM272.689 27.8343C272.878 28.3998 273.649 28.6825 275 28.6825V31H263.557V28.6825H265.754C266.306 28.6825 266.582 28.5126 266.582 28.1735C266.582 28.0986 266.553 27.9855 266.496 27.8343L265.697 25.5734H257.993L257.279 27.6084C257.222 27.7592 257.193 27.8818 257.193 27.9758C257.193 28.4468 257.621 28.6825 258.478 28.6825H260.104V31H252.028L252 28.6825C252.818 28.6825 253.413 28.6117 253.783 28.4705C254.154 28.3292 254.387 28.1268 254.482 27.8627L260.875 10H266.639L272.689 27.8343Z" fill="white"/>
<path fill-rule="evenodd" clip-rule="evenodd" d="M294 18.6487L291.606 18.7335C291.514 16.6045 291.188 15.0972 290.628 14.2113C290.069 13.3258 289.257 12.883 288.193 12.883H286.321V27.3822C286.321 28.2492 287.147 28.6825 288.798 28.6825V31H278.257V28.6825C279.89 28.6825 280.707 28.2492 280.707 27.3822V12.883H278.807C277.743 12.883 276.936 13.3258 276.385 14.2113C275.835 15.0972 275.505 16.6045 275.395 18.7335L273 18.6487V10H294V18.6487Z" fill="white"/>
<path fill-rule="evenodd" clip-rule="evenodd" d="M316.296 16.3595L313.363 16.5008C313.246 14.0891 312.15 12.883 310.078 12.883H304.564V18.7901H306.793C307.712 18.7901 308.26 17.7352 308.436 15.6246H311.017L310.577 24.443H308.054C307.839 22.2574 307.35 21.1645 306.588 21.1645H304.564V28.1172H309.022C312.112 28.1172 313.774 26.3274 314.008 22.7469L317 22.9448L316.296 31H296V28.6825C297.74 28.6825 298.61 28.2494 298.61 27.3822V13.6178C298.61 12.7514 297.74 12.3177 296 12.3177V10H316.296V16.3595Z" fill="white"/>
<path fill-rule="evenodd" clip-rule="evenodd" d="M326.393 12.9961V18.708H330.072C331.145 18.708 331.926 18.4797 332.414 18.0221C332.903 17.5649 333.147 16.7575 333.147 15.6C333.147 14.7417 332.908 14.0928 332.429 13.6541C331.949 13.2156 331.164 12.9961 330.072 12.9961H326.393ZM342 27.1638C342 27.7055 341.914 28.2127 341.741 28.685C341.569 29.1576 341.305 29.565 340.951 29.9061C340.596 30.2478 340.136 30.5156 339.571 30.7093C339.006 30.9026 338.33 31 337.545 31C336.625 31 335.844 30.8878 335.202 30.664C334.56 30.4399 334.038 30.1318 333.636 29.7398C333.233 29.3479 332.936 28.8907 332.745 28.368C332.553 27.8454 332.458 27.2857 332.458 26.6879V24.868C332.458 24.1399 332.414 23.5335 332.328 23.048C332.242 22.5626 332.093 22.1757 331.883 21.886C331.671 21.5967 331.394 21.3869 331.049 21.256C330.704 21.1257 330.263 21.0601 329.727 21.0601H326.393V27.2199C326.393 28.0788 327.456 28.5079 329.583 28.5079V30.804H318V28.5358C319.705 28.5358 320.558 28.106 320.558 27.2457V13.5862C320.558 12.7261 319.705 12.2961 318 12.2961V10H331.653C332.591 10 333.511 10.061 334.412 10.1821C335.312 10.3037 336.112 10.5509 336.812 10.9243C337.511 11.2978 338.072 11.8249 338.493 12.5061C338.915 13.1878 339.126 14.0881 339.126 15.208C339.126 15.9362 339.011 16.5757 338.781 17.126C338.551 17.6769 338.249 18.148 337.875 18.5401C337.502 18.932 337.075 19.2496 336.596 19.4921C336.117 19.7348 335.619 19.9121 335.102 20.0241C335.619 20.1741 336.074 20.3752 336.467 20.6281C336.86 20.8812 337.195 21.2038 337.473 21.5973C337.751 21.9905 337.962 22.4725 338.105 23.0441C338.249 23.6154 338.321 24.2846 338.321 25.0526V27.3C338.321 27.7122 338.407 28.0164 338.58 28.2129C338.752 28.4099 338.972 28.5079 339.241 28.5079C339.528 28.5079 339.758 28.4099 339.93 28.2139C340.103 28.0178 340.189 27.7147 340.189 27.3038V25.9599H342V27.1638Z" fill="white"/>
</svg>
