<svg width="268" height="160" viewBox="0 0 268 160" fill="none" xmlns="http://www.w3.org/2000/svg">
  <path fill-rule="evenodd" clip-rule="evenodd" d="M182.895 11.9476C182.87 11.7621 182.777 11.5406 182.608 11.2675C182.5 11.0997 182.364 10.9165 182.193 10.7076L181.328 10.3087L168.354 17.4714L168.574 17.659L168.705 17.7689C168.767 17.8204 168.829 17.8721 168.889 17.9246C172.949 21.4816 174.777 24.1492 177.071 29.4487L177.512 29.4418C177.763 28.1752 177.807 28.3402 178.2 27.2705C178.458 26.5834 178.696 26.0224 178.952 25.5014C179.039 25.3132 179.139 25.1236 179.237 24.9401C179.29 24.8405 179.342 24.741 179.392 24.6432L180.03 23.435L180.227 23.0282L180.62 22.2078C180.688 22.0526 180.756 21.8975 180.825 21.7426C180.997 21.354 181.176 20.9523 181.328 20.5511C182.33 18.0329 182.868 15.7772 182.972 13.6522C182.997 12.9749 182.971 12.4157 182.895 11.9476Z" fill="#819396"/>
  <path fill-rule="evenodd" clip-rule="evenodd" d="M180.444 21.1187C181.432 18.3304 181.961 15.8374 182.063 13.4996C182.086 12.7656 182.062 12.163 181.989 11.6521C181.971 11.5045 181.893 11.3037 181.758 11.0587C181.683 10.9282 181.594 10.7876 181.486 10.6331L168.649 17.9008C168.682 17.932 168.715 17.9633 168.746 17.9948C172.615 21.8067 175.235 26.3812 176.542 31.6051C176.758 30.5677 177.013 29.604 177.315 28.6809C177.577 27.8954 177.819 27.2528 178.077 26.6635C178.168 26.4424 178.27 26.2247 178.37 26.0142L178.371 26.012L178.38 25.9914C178.429 25.8878 178.478 25.7842 178.526 25.6782L179.158 24.3335L179.741 22.9694C179.809 22.7947 179.877 22.6202 179.946 22.4457C180.117 22.0135 180.293 21.5663 180.444 21.1187ZM180.731 76.0967L181.435 75.7931C181.444 75.787 181.453 75.7818 181.462 75.7769C181.283 75.3443 181.084 74.9046 180.891 74.477L180.886 74.4678L180.885 74.4635C180.53 73.6805 180.164 72.8708 179.899 72.059C179.345 70.3637 178.848 68.4887 178.443 66.5909C178.7 70.3594 179.127 73.6919 179.72 76.5328L180.17 76.3387L179.491 78.656C180.91 84.2934 182.317 89.9641 182.148 93.2813C181.849 99.155 179.003 103.673 179.003 103.673C179.003 103.673 181.399 106.384 172.862 115.27C166.999 121.373 164.527 122.148 162.244 122.864C161.202 123.191 160.2 123.505 158.933 124.307C154.889 126.867 155.039 134.85 155.039 134.85C155.039 134.85 165.523 141.025 171.814 146.597C175.204 149.601 180.597 155.074 184.848 159.481H64.1826C66.9924 156.044 69.3665 153.073 69.3665 153.073L94.0796 136.054L93.4806 131.762L84.9433 127.62C84.9433 127.62 65.2072 120.477 62.9262 113.915C61.9383 111.073 61.728 107.137 61.728 107.137C61.728 107.137 57.9835 107.288 57.5341 104.878C57.0847 102.468 56.7852 100.661 58.7324 97.0466L58.7684 96.9798C60.6998 93.3945 62.3214 90.3842 61.4285 84.6964C61.4285 84.6964 61.5784 80.4792 60.0806 78.3708C58.5825 76.2623 50.4949 48.5498 59.1818 34.2419C67.8687 19.934 79.1021 14.813 84.7934 12.8553C85.6299 12.5676 86.5537 12.218 87.5738 11.832C93.4954 9.59133 102.664 6.12203 116.846 6.37893C130.728 6.63063 140.354 7.65257 150.598 9.5289C150.598 9.5289 165.534 5.76241 170.477 4.40702C171.582 4.10399 172.697 3.75809 173.816 3.41122C177.7 2.20659 181.622 0.990162 185.285 1.51646C188.47 1.97409 194.934 9.49583 200.525 16.0032C203.216 19.1345 205.705 22.0309 207.53 23.7924C213.146 29.2142 221.429 38.6594 222.216 44.1944C223.002 49.7294 223.853 61.7367 214.754 80.3147C207.864 94.3814 207.874 97.4076 206.481 98.342C206.034 98.6417 205.443 98.7262 204.434 98.8908C200.278 99.5684 190.676 91.8126 186.969 85.7129C184.024 80.8665 181.602 77.3409 180.731 76.0967ZM180.731 76.0967L180.17 76.3387L180.385 75.6058C180.385 75.6058 180.506 75.7749 180.731 76.0967Z" fill="white"/>
  <path fill-rule="evenodd" clip-rule="evenodd" d="M224.273 46.5433L224.182 45.5397L224.138 45.0409L224.115 44.7861L224.08 44.4779C223.968 43.6634 223.742 42.9161 223.47 42.2159C222.918 40.8176 222.191 39.5845 221.414 38.4149C219.854 36.0808 218.062 34.0108 216.244 31.9921C214.549 30.1206 212.799 28.3144 211.057 26.5168L211.056 26.5162C209.054 24.4497 207.062 22.3945 205.179 20.2645C204.503 19.4917 203.824 18.6907 203.147 17.8932L203.144 17.8888C202.949 17.6598 202.755 17.4312 202.562 17.2036L199.949 14.1187C198.214 12.0553 196.463 10.0026 194.665 7.9819C193.769 6.96909 192.851 5.97272 191.909 4.99249C191.439 4.50122 190.957 4.02062 190.465 3.54319C190.22 3.30447 189.97 3.06835 189.717 2.83367L189.638 2.76143C189.41 2.55161 189.181 2.34028 188.931 2.14866C188.373 1.71621 187.766 1.36044 187.05 1.01967C186.961 0.975848 186.862 0.93462 186.763 0.894546C186.656 0.854472 186.548 0.817858 186.447 0.788739C186.241 0.731655 186.046 0.685238 185.854 0.649777C185.472 0.573953 185.105 0.541087 184.744 0.529843C183.307 0.496688 181.957 0.68841 180.615 0.905213C177.939 1.35987 175.334 2.00307 172.741 2.6555C172.177 2.7993 171.615 2.9433 171.054 3.08705C169.032 3.60531 167.022 4.12048 164.996 4.6125C159.824 5.87527 154.637 7.10142 149.451 8.3146L149.443 8.31662C149.432 8.31921 149.42 8.32238 149.408 8.32527C149.258 8.36541 149.121 8.42965 148.999 8.51284C135.24 4.95577 120.4 5.01256 113.778 5.0379L113.767 5.03794C105.833 5.06913 96.8446 6.62607 88.3246 9.64505C87.1714 9.99294 80.45 11.6739 67.1095 8.37049C53.4782 4.99506 51.2536 5.13251 48.8399 5.28165C48.6444 5.29373 48.4477 5.30589 48.2435 5.31626C46.2965 5.41519 45.6636 6.77751 44.6875 8.87885L44.6875 8.87888C44.2978 9.71771 43.8534 10.6743 43.2489 11.7153C41.1342 15.3566 39.419 16.9254 29.3883 26.1L29.3238 26.1591C25.2439 29.8907 20.3109 32.771 15.678 35.476L15.678 35.476C8.45156 39.6953 1.95533 43.4882 0.565675 49.4209C-0.694662 54.8015 2.06883 57.6691 8.77368 64.6267C11.7311 67.6957 15.4555 71.5604 19.9395 76.7875C24.9483 82.6263 27.835 87.4882 29.9724 91.0879C33.0665 96.2992 34.5902 98.8652 38.7081 97.9209C40.4614 97.5189 40.4917 96.7897 40.5552 95.2642C40.6252 93.5802 40.7356 90.9258 43.2489 86.6701C46.3822 81.3642 46.9209 77.9733 47.2453 75.931C47.4693 74.5206 47.5912 73.7534 48.395 73.443C49.2555 73.1105 49.4501 73.3015 49.8595 73.7033C50.386 74.2202 51.268 75.086 54.3796 75.6351C56.3872 75.9892 57.8439 77.2398 58.773 78.2706C59.1905 79.5413 59.5731 80.9766 59.8921 82.8688C60.2874 85.2127 60.086 87.916 59.9241 90.0884L59.9215 90.1235C59.883 90.6438 59.8465 91.1355 59.8203 91.5893C59.7839 92.2191 59.262 93.0026 58.6575 93.91L58.6568 93.9111C57.6215 95.464 56.2036 97.5916 56.0273 100.791C55.9162 102.802 56.4191 104.436 57.5226 105.647C58.3515 106.558 59.3416 107.027 60.1322 107.27C60.1221 109.354 60.58 113.184 63.4271 117.333C64.813 119.353 68.0678 121.524 73.1007 123.787C76.5808 125.351 79.6738 126.404 80.0535 126.532C81.5271 127.109 82.6602 127.543 83.5444 127.881C86.3906 128.97 86.3906 128.97 87.0895 129.677C87.2935 129.883 87.5471 130.139 87.8919 130.467C89.8372 132.311 91.3931 132.058 92.3223 131.906L92.3228 131.906L92.3298 131.905L92.3305 131.905C92.4424 131.887 92.5887 131.863 92.6954 131.853C92.7017 132.074 92.6726 132.423 92.6495 132.696L92.6493 132.698C92.5948 133.353 92.527 134.17 92.6538 135.069C92.6548 135.077 92.6561 135.086 92.6574 135.095L92.659 135.106C92.4289 135.242 92.0758 135.429 91.7071 135.626L91.706 135.626L91.6869 135.636C89.8892 136.592 86.1488 138.581 78.9319 143.502C70.3598 149.347 62.9698 155.482 58.4035 159.481H62.6082C67.0929 155.665 73.3753 150.619 80.4904 145.768C87.5814 140.932 91.2316 138.991 92.9859 138.059L92.9873 138.058C94.8775 137.053 95.6598 136.637 95.3846 134.687C95.3007 134.091 95.3502 133.498 95.3981 132.924L95.3982 132.923C95.4328 132.508 95.4738 132.013 95.4262 131.516C95.5052 131.494 95.5848 131.472 95.6643 131.451C95.7205 131.435 95.7766 131.42 95.8324 131.404C96.5325 131.205 97.2273 131.001 97.9178 130.786C98.0332 130.75 98.1479 130.712 98.2625 130.675L98.2632 130.675C98.3521 130.646 98.4409 130.617 98.5301 130.588C98.6504 130.795 98.7745 130.999 98.9066 131.196C99.1978 131.631 99.5123 132.049 99.8603 132.443C100.545 133.238 101.346 133.947 102.238 134.545C102.682 134.845 103.162 135.108 103.626 135.331C103.793 135.419 103.956 135.489 104.12 135.56L104.122 135.561C104.188 135.589 104.254 135.617 104.321 135.647C104.551 135.749 104.782 135.848 105.012 135.935L105.703 136.206L106.395 136.455C106.738 136.582 107.083 136.695 107.429 136.808L107.429 136.808L107.556 136.849C107.632 136.874 107.707 136.899 107.783 136.924C111.499 138.092 115.311 138.895 119.222 139.236C121.177 139.394 123.158 139.436 125.159 139.231C127.18 139.017 129.196 138.497 131.035 137.626C131.958 137.197 132.844 136.697 133.677 136.127C134.513 135.56 135.302 134.934 136.032 134.248C136.766 133.568 137.447 132.836 138.068 132.058C138.38 131.671 138.674 131.269 138.955 130.857C138.961 130.848 138.966 130.839 138.972 130.831C138.977 130.822 138.982 130.814 138.988 130.805C140.275 131.312 141.615 131.809 143.13 132.097C143.527 132.171 143.937 132.225 144.36 132.254C144.785 132.285 145.224 132.284 145.644 132.25C146.489 132.183 147.288 131.982 148.04 131.719C149.445 131.208 150.686 130.499 151.899 129.805L152.148 129.663C152.794 129.292 153.428 128.909 154.042 128.5C154.243 128.372 154.44 128.238 154.637 128.104L154.698 128.063C154.065 131.335 153.935 134.879 153.929 135.058C153.91 135.624 154.241 136.143 154.763 136.366C154.868 136.411 165.256 140.888 171.032 146.344C174.242 149.376 179.838 154.965 184.322 159.481H188.198C183.501 154.738 176.642 147.856 172.93 144.352C167.753 139.462 159.455 135.471 156.734 134.234C156.833 132.636 157.115 129.277 157.817 126.834C158.233 125.383 158.43 125.305 160.31 124.56L160.31 124.56C161.633 124.036 163.632 123.244 166.525 121.522C170.652 119.064 174.846 114.812 176.36 113.001C177.515 111.62 179.437 109.02 180.31 106.868C181.073 104.987 180.642 103.22 180.627 103.197C183.138 100.248 183.717 94.8201 183.421 90.8923C183.225 88.2851 182.484 85.385 181.626 82.0275L181.625 82.0247L181.624 82.0224L181.624 82.0222C181.254 80.5729 180.862 79.0382 180.482 77.4049C180.525 77.4981 180.569 77.5937 180.614 77.692L180.614 77.6921L180.799 78.0917C181.09 78.7211 181.391 79.3458 181.709 79.9703L181.952 80.4411L182.063 80.6481L182.168 80.8669C182.234 81.0073 182.315 81.1691 182.395 81.3288L182.639 81.8033C183.3 83.0618 184.034 84.264 184.819 85.4247C186.395 87.7401 188.142 89.913 190.062 91.9326C191.022 92.9428 192.029 93.9095 193.084 94.8332C194.141 95.7537 195.244 96.6351 196.427 97.4368C197.617 98.2305 198.869 98.9738 200.288 99.538C200.998 99.8185 201.75 100.06 202.578 100.202C202.992 100.273 203.424 100.319 203.879 100.321C204.257 100.319 204.639 100.303 205.038 100.258C205.437 100.211 205.852 100.142 206.286 100.015C206.718 99.892 207.18 99.7087 207.632 99.4348C208.086 99.16 208.524 98.7789 208.858 98.3372C209.197 97.8999 209.425 97.423 209.586 96.9836C209.751 96.5396 209.844 96.1199 209.922 95.722C209.961 95.5217 209.994 95.3282 210.022 95.1365L210.033 95.0647L210.041 95.0284L210.054 94.9589C210.057 94.9286 210.071 94.8782 210.084 94.8276L210.095 94.7845C210.156 94.5293 210.254 94.2228 210.35 93.9265C210.451 93.6246 210.556 93.3193 210.668 93.0117C211.574 90.5429 212.626 88.0537 213.715 85.602C214.801 83.1431 215.931 80.7 217.088 78.271C218.246 75.8432 219.419 73.4218 220.631 71.0283C221.24 69.8676 221.861 68.5619 222.375 67.2495C222.893 65.9334 223.339 64.5841 223.687 63.2078C224.033 61.8317 224.295 60.4337 224.464 59.028C224.621 57.6213 224.72 56.211 224.717 54.8081C224.709 52.0029 224.505 49.2323 224.273 46.5433ZM153.92 9.96603C157.798 8.92297 161.673 7.86974 165.547 6.7938L165.85 6.70888L165.851 6.70865C167.036 6.37707 168.22 6.04565 169.405 5.702L173.244 4.5805C175.797 3.84533 178.352 3.12428 180.916 2.59957C182.192 2.34586 183.489 2.12704 184.718 2.11609C185.022 2.11724 185.321 2.12906 185.596 2.16798C185.731 2.19133 185.862 2.22045 185.973 2.26773C186.028 2.28922 186.073 2.31558 186.118 2.3413L186.122 2.34385L186.156 2.36537L186.156 2.3655C186.196 2.39111 186.237 2.417 186.281 2.4485C186.499 2.60505 186.725 2.82358 186.943 3.04413C187.018 3.11971 187.092 3.19655 187.167 3.27379L187.168 3.27432L187.168 3.27498C187.314 3.42483 187.461 3.57619 187.613 3.7228C187.781 3.88228 187.952 4.04086 188.123 4.20023L188.123 4.20035C188.427 4.48346 188.734 4.76906 189.032 5.06658C189.414 5.43983 189.79 5.82411 190.166 6.20922C190.253 6.29856 190.34 6.38794 190.428 6.47725C191.352 7.43066 192.263 8.40686 193.172 9.38565C194.987 11.3499 196.769 13.3553 198.538 15.3746C200.304 17.4045 202.026 19.4471 203.759 21.535C205.127 23.1456 206.548 24.6835 207.964 26.2161L207.964 26.2165C208.376 26.6621 208.787 27.1072 209.197 27.5536L209.271 27.6342L209.272 27.6349C211.064 29.5874 212.851 31.5337 214.557 33.5316C216.283 35.5558 217.946 37.6339 219.346 39.8123C220.038 40.9012 220.657 42.0264 221.074 43.1572C221.28 43.7208 221.43 44.2844 221.49 44.8155L221.572 45.7787C221.6 46.1209 221.632 46.4611 221.668 46.7999C221.712 47.2273 221.758 47.6525 221.805 48.076C221.905 48.9944 222.004 49.9047 222.079 50.8122C222.189 52.1367 222.23 53.4562 222.184 54.7643C222.145 56.0726 222.034 57.3702 221.83 58.6497C221.621 59.928 221.333 61.1891 220.96 62.4233C220.588 63.6578 220.127 64.8641 219.6 66.0409C219.272 66.7868 218.904 67.4967 218.525 68.231L218.524 68.2312C218.3 68.6653 218.071 69.1079 217.843 69.5715C216.626 72.0036 215.443 74.4464 214.297 76.9071C213.151 79.3677 212.028 81.8388 210.928 84.3248C210.517 85.2512 210.117 86.1832 209.716 87.1169C209.579 87.4355 209.442 87.7544 209.304 88.0733C208.769 89.3303 208.245 90.5914 207.752 91.8968C207.629 92.2232 207.509 92.5556 207.392 92.8943L207.375 92.9444C207.265 93.2732 207.157 93.5964 207.057 93.9786C207.051 94.0003 207.046 94.0215 207.04 94.0428L207.04 94.0429C207.019 94.12 206.999 94.1972 206.98 94.2978L206.917 94.6193L206.916 94.6244C206.89 94.7653 206.864 94.9039 206.831 95.0327C206.767 95.2965 206.681 95.5326 206.587 95.7142C206.496 95.9013 206.388 96.0198 206.295 96.0983C206.196 96.1729 206.101 96.2141 205.968 96.2597C205.83 96.2995 205.659 96.3442 205.442 96.3724C205.228 96.3992 204.982 96.4232 204.717 96.4341C204.454 96.4465 204.17 96.4526 203.882 96.452C203.671 96.4529 203.439 96.4313 203.196 96.3912C202.71 96.3128 202.182 96.1539 201.651 95.9475C200.586 95.5277 199.503 94.9373 198.459 94.2586C196.361 92.899 194.375 91.228 192.532 89.4163C190.688 87.5997 188.966 85.6329 187.466 83.521C186.715 82.467 186.015 81.3798 185.393 80.2615L185.163 79.8409L185.135 79.788C185.07 79.6656 185.004 79.5421 184.933 79.3995L184.813 79.1642L184.683 78.9261L184.456 78.4997C184.156 77.9236 183.864 77.3341 183.582 76.7396C183.019 75.55 182.489 74.3392 181.998 73.1136C178.494 64.2628 178.871 57.1217 179.332 48.3977C179.377 47.5512 179.422 46.6898 179.465 45.8106C179.693 43.6086 179.442 41.3302 179.191 39.0456C178.851 35.9645 178.511 32.8723 179.343 29.9419C179.524 29.3244 179.721 28.7118 179.955 28.115C180.026 27.9217 180.106 27.7335 180.186 27.5448C180.231 27.4385 180.277 27.332 180.32 27.2244L180.725 26.2684L180.927 25.7907L181.114 25.3055L181.485 24.3347L181.566 24.0985C181.766 23.5212 181.965 22.9444 182.136 22.3561C182.936 19.6962 183.489 16.936 183.492 14.0925C183.482 13.3778 183.445 12.6674 183.305 11.9152C183.208 11.4404 183.003 11.0526 182.789 10.7294C182.574 10.4028 182.332 10.122 182.083 9.85933C181.835 9.5964 181.578 9.3522 181.31 9.12704C181.043 8.90014 180.772 8.68305 180.49 8.48297C179.931 8.07589 179.353 7.71522 178.733 7.40327C178.628 7.35023 178.497 7.36781 178.408 7.45661C178.297 7.56876 178.296 7.75155 178.406 7.86485L178.413 7.87148C178.527 7.98902 178.642 8.10643 178.756 8.22381L178.756 8.22393C179.412 8.89564 180.067 9.56655 180.647 10.2583L167.076 16.4871C163.454 13.8712 159.051 11.6879 153.92 9.96603ZM168.931 17.9211C169.618 18.4901 170.272 19.0771 170.892 19.682C173.855 22.5724 175.845 25.8962 177.097 29.6149C177.128 29.4934 177.161 29.3761 177.198 29.263C177.421 28.5886 177.662 27.9195 177.944 27.2665C178.031 27.0514 178.129 26.8403 178.227 26.6297C178.279 26.5182 178.331 26.4069 178.381 26.2952L178.797 25.3971L179.006 24.948L179.199 24.4927L179.583 23.5808C179.648 23.4098 179.715 23.2391 179.781 23.0684C179.954 22.6251 180.127 22.1816 180.277 21.7308C181.144 19.2502 181.771 16.6564 181.882 14.0697C181.903 13.43 181.891 12.7798 181.808 12.1943C181.785 12.0006 181.689 11.7682 181.553 11.5176C181.44 11.3179 181.304 11.1134 181.158 10.9108L168.931 17.9211ZM152.75 126.504C152.166 126.865 151.576 127.21 150.973 127.52C149.765 128.138 148.463 128.538 147.216 128.753C146.594 128.866 145.988 128.937 145.411 128.971C145.12 128.987 144.846 128.99 144.559 128.977C144.271 128.963 143.973 128.93 143.668 128.888C142.44 128.711 141.12 128.339 139.769 127.953C139.568 127.895 139.366 127.838 139.163 127.779L139.157 127.778L139.157 127.778C137.995 127.445 136.803 127.103 135.58 126.81C135.225 126.723 134.847 126.642 134.5 126.568C134.168 126.499 133.841 126.418 133.518 126.331C133.194 126.243 132.873 126.145 132.522 126.037C132.176 125.924 131.789 125.812 131.408 125.723C129.956 125.395 128.599 125.261 127.235 125.126H127.235L127.015 125.105C125.582 124.974 124.155 124.866 122.729 124.767C122.24 124.735 121.754 124.701 121.268 124.666C120.332 124.6 119.395 124.533 118.433 124.487C115.534 124.36 112.583 124.442 109.677 124.93C108.226 125.171 106.792 125.502 105.389 125.886C104.255 126.194 103.141 126.545 102.038 126.892L102.038 126.893L102.035 126.893C101.773 126.976 101.51 127.059 101.249 127.14C99.9033 127.565 98.5523 127.965 97.1981 128.333C96.5206 128.516 95.8434 128.695 95.165 128.853C94.8257 128.931 94.4866 129.007 94.1493 129.077L93.6455 129.179C93.6239 129.183 92.2686 129.252 91.035 128.88C90.0502 128.582 89.143 127.84 89.0544 127.75C87.9366 126.62 87.7444 126.546 84.5335 125.317L84.5032 125.306L84.5014 125.305C83.6208 124.968 82.4932 124.537 81.0302 123.964C81.013 123.957 80.9954 123.951 80.9778 123.944C80.9729 123.943 80.9681 123.941 80.9633 123.94C77.4788 122.778 67.9446 119.049 65.7037 115.783C62.558 111.199 62.8514 107.095 62.942 106.318C63.1429 104.599 64.441 101.576 72.7648 93.3925C72.8923 93.2672 72.9875 93.1221 73.0556 92.9681C73.6552 93.1825 74.1991 93.3356 74.2944 93.3617C74.4101 93.3939 74.5269 93.4092 74.6418 93.4092C75.2102 93.4092 75.7316 93.0342 75.8912 92.4622C76.0831 91.7746 75.6788 91.0624 74.9883 90.8713C74.4952 90.7348 73.5528 90.4309 73.1229 90.1973C70.8301 88.9492 69.965 88.6728 69.815 88.6303C69.1253 88.4349 68.3976 88.8288 68.2008 89.5152C68.004 90.2016 68.3936 90.9138 69.0829 91.1098L69.0831 91.1099C69.0953 91.1139 69.5013 91.2476 70.5115 91.7505C66.6077 95.6094 63.9121 98.6658 62.2856 101.081C61.3198 102.515 60.8105 103.606 60.5286 104.486C60.2034 104.339 59.8569 104.123 59.5649 103.802C58.9754 103.155 58.7116 102.193 58.7806 100.942C58.9162 98.4877 59.9988 96.8629 60.9542 95.4295C61.7466 94.2412 62.4942 93.1187 62.5736 91.7465C62.599 91.3013 62.6351 90.8184 62.6733 90.3079L62.6746 90.2915C62.8471 87.9718 63.0618 85.0849 62.6116 82.414C62.0259 78.9392 61.2194 76.8272 60.4392 74.785C59.8044 73.1229 59.2048 71.5527 58.7154 69.2471C56.3366 58.0341 55.0725 42.2998 62.5626 31.0181C68.588 21.9422 78.5545 16.4974 85.8542 13.528C94.7417 9.91247 104.919 7.81912 113.778 7.78435L113.778 7.78435C120.781 7.75677 137.185 7.69216 151.38 12.0366C167.704 17.0329 176.27 26.3818 176.837 39.8237C177.065 45.214 176.548 49.2708 176.091 52.8499L176.09 52.8622L176.09 52.8624C175.819 54.9895 175.585 56.8274 175.559 58.5924C175.411 68.8484 177.374 76.5296 178.952 82.7016L178.952 82.7019L178.953 82.7056L178.953 82.706C179.779 85.9382 180.492 88.7298 180.671 91.0972C180.917 94.3768 180.45 98.5733 178.924 100.888C178.596 100.48 178.262 100.077 177.912 99.6881C176.904 98.5512 175.817 97.4821 174.646 96.5024C173.55 95.5726 172.454 94.6259 171.37 93.6654L170.872 93.2204C171.32 93.281 171.765 93.3491 172.203 93.433C172.618 93.5068 172.992 93.5973 173.39 93.7111C173.783 93.824 174.172 93.9631 174.562 94.1128C175.333 94.4237 176.117 94.7908 176.848 95.2187L176.861 95.2267C176.951 95.2793 177.068 95.2721 177.152 95.2006C177.257 95.1106 177.27 94.9526 177.179 94.8477C176.582 94.1542 175.906 93.5609 175.155 93.0328C174.78 92.7702 174.386 92.5303 173.976 92.3076C173.567 92.0979 173.122 91.8904 172.698 91.7338C171.842 91.404 170.974 91.1469 170.1 90.9317C169.22 90.7168 168.357 90.5507 167.436 90.436C167.066 90.3927 166.675 90.5188 166.404 90.8113C165.954 91.2965 165.984 92.0536 166.471 92.5021L166.498 92.5271L169.711 95.4838C169.967 95.7197 170.223 95.956 170.478 96.1924L170.479 96.1927C171.292 96.9455 172.108 97.6993 172.938 98.4454C173.947 99.3841 174.897 100.396 175.751 101.486C176.179 102.029 176.585 102.59 176.969 103.161C177.16 103.448 177.342 103.739 177.52 104.03C177.533 104.053 177.547 104.075 177.56 104.098L177.59 104.148C177.653 104.255 177.717 104.361 177.776 104.467L177.897 104.684L177.899 104.688C177.917 104.777 177.936 104.872 177.955 104.971C177.965 105.023 177.976 105.076 177.986 105.131C177.601 106.831 171.007 115.653 165.11 119.165C163.345 120.215 160.976 121.365 159.198 122.228C158.253 122.687 157.475 123.064 157.045 123.302C155.227 124.309 154.115 125.313 153.417 125.944C153.132 126.201 152.917 126.396 152.75 126.504ZM136.518 130.724C135.898 131.378 135.234 131.989 134.541 132.556C133.154 133.691 131.621 134.623 129.999 135.31C128.373 135.994 126.657 136.417 124.899 136.565C123.116 136.734 121.282 136.682 119.454 136.517C117.625 136.352 115.794 136.079 113.978 135.711C112.162 135.344 110.356 134.9 108.589 134.358C108.474 134.323 108.359 134.287 108.244 134.252C107.918 134.152 107.591 134.052 107.272 133.939L106.619 133.718L105.98 133.481C105.764 133.404 105.558 133.319 105.352 133.233C105.291 133.207 105.229 133.182 105.167 133.156C105.022 133.097 104.877 133.038 104.745 132.973C104.349 132.796 103.988 132.613 103.64 132.393C102.943 131.955 102.291 131.42 101.72 130.795C101.429 130.489 101.168 130.153 100.914 129.814C100.911 129.811 100.909 129.808 100.907 129.805L100.905 129.801C101.021 129.761 101.136 129.722 101.252 129.682C101.508 129.595 101.764 129.507 102.019 129.417C104.697 128.47 107.339 127.586 110.056 127.111C111.413 126.867 112.784 126.706 114.167 126.632C115.551 126.562 116.943 126.568 118.338 126.622C119.035 126.657 119.733 126.692 120.446 126.743C121.156 126.789 121.865 126.836 122.573 126.893C123.989 126.999 125.403 127.114 126.807 127.25C127.507 127.321 128.205 127.396 128.892 127.486C129.575 127.581 130.251 127.686 130.867 127.85C131.177 127.936 131.471 128.033 131.798 128.153C132.12 128.276 132.472 128.41 132.829 128.532L133.366 128.709L133.903 128.874C134.245 128.981 134.557 129.078 134.885 129.193C135.632 129.45 136.377 129.745 137.128 130.051C136.929 130.279 136.726 130.503 136.518 130.724Z" fill="black"/>
  <path fill-rule="evenodd" clip-rule="evenodd" d="M118.446 117.297C131.041 117.297 146.461 95.086 143.139 88.1105C139.327 80.1078 102.371 78.6955 96.9018 87.4043C90.9312 96.9119 111.32 117.297 118.446 117.297" fill="black"/>
  <path fill-rule="evenodd" clip-rule="evenodd" d="M103.463 60.2065C101.68 58.2059 99.0006 57.0046 95.7635 57.0046C89.7662 57.0046 84.9045 61.6257 84.9045 67.3255C84.9045 70.6513 86.5611 73.6077 89.1313 75.4952C88.3637 75.3849 87.5413 75.2661 86.6538 75.1372C83.7294 74.7127 81.2872 74.4617 79.3377 74.315C76.4306 71.9716 70.1957 65.3874 73.1683 53.7087C75.4809 44.624 84.6537 40.8145 89.433 40.9611C94.2121 41.1075 103.077 45.5033 103.539 56.4195C103.593 57.674 103.56 58.9431 103.463 60.2065M80.359 39.6748C80.4656 39.5991 83.0005 37.8085 85.9773 37.0989C88.832 36.4186 92.1638 36.2649 92.3042 36.2587C92.9966 36.2292 93.5773 36.7341 93.6096 37.3888C93.6419 38.0435 93.1094 38.5991 92.4206 38.6298C92.3889 38.6312 89.193 38.7801 86.5846 39.4015C84.1074 39.9918 81.8784 41.5592 81.8562 41.575C81.632 41.734 81.3697 41.8108 81.11 41.8108C80.7294 41.8108 80.3539 41.6465 80.109 41.3352C79.6962 40.8105 79.8078 40.068 80.359 39.6748M87.4291 26.543C76.175 27.1875 66.3892 42.6344 64.8436 57.1887C63.909 65.9934 71.7318 71.7194 75.9431 74.136C74.5175 74.0977 73.7556 74.1327 73.6813 74.1363C72.9924 74.1706 72.4635 74.7294 72.4997 75.3837C72.5361 76.0384 73.1272 76.5408 73.8124 76.5068C73.8554 76.5045 78.1719 76.3069 86.2771 77.4837C94.5183 78.6805 97.4868 79.0602 97.5161 79.0627C98.2476 79.1266 99.0137 78.9755 99.4614 78.5358C99.68 78.3216 105.616 72.6159 107.278 63.7825C109.938 49.6467 101.478 25.7386 87.4291 26.543Z" fill="black"/>
  <path fill-rule="evenodd" clip-rule="evenodd" d="M112.631 77.8397C112.785 77.8028 116.46 76.9344 120.498 77.1632C124.37 77.3829 128.762 78.2131 128.947 78.2484C129.859 78.423 130.519 79.0443 130.431 79.6405C130.343 80.2366 129.535 80.5799 128.627 80.4073C128.586 80.3994 124.373 79.6043 120.835 79.4035C117.474 79.2128 114.245 79.9701 114.213 79.9778C113.888 80.0552 113.529 80.0478 113.189 79.9724C112.691 79.8618 112.232 79.6054 111.973 79.2552C111.537 78.6651 111.831 78.032 112.631 77.8397" fill="black"/>
  <path fill-rule="evenodd" clip-rule="evenodd" d="M116.033 75.2576C116.138 75.2383 118.636 74.7853 121.339 75.082C123.931 75.3666 126.85 76.0795 126.973 76.1097C127.579 76.2593 128 76.6998 127.92 77.0969C127.84 77.4941 127.285 77.6959 126.682 77.5479C126.654 77.5411 123.854 76.8581 121.486 76.598C119.236 76.351 117.041 76.745 117.019 76.7491C116.798 76.7895 116.558 76.7719 116.332 76.7092C116.002 76.6173 115.703 76.4289 115.541 76.1846C115.27 75.773 115.489 75.3584 116.033 75.2576" fill="black"/>
  <path fill-rule="evenodd" clip-rule="evenodd" d="M151.166 77.5019C148.33 77.7827 145.789 78.0986 143.787 78.3716C143.731 78.3283 143.672 78.2871 143.606 78.2528C143.508 78.2018 133.771 72.9785 134.156 60.5927C134.393 52.9629 137.919 48.517 140.834 46.1311C143.988 43.5497 148.074 42.1729 151.245 42.6235C160.485 43.9371 164.847 52.7314 164.989 60.3468C164.996 60.7385 164.994 61.1208 164.983 61.4967C163.108 59.8386 160.621 58.8256 157.89 58.8256C152.051 58.8256 147.317 63.4447 147.317 69.1428C147.317 72.5544 149.014 75.5789 151.629 77.4572C151.475 77.4719 151.321 77.4863 151.166 77.5019M163.446 76.7533C163.424 76.7536 162.509 76.7662 160.976 76.8265C163.716 74.2912 167.645 69.1059 167.48 60.3024C167.325 52.007 163.549 46.2441 158.81 43.0467C157.824 42.2055 155.292 40.2396 151.391 38.5374C146.852 36.5564 142.921 36.1036 142.755 36.0854C142.141 36.0177 141.586 36.4483 141.515 37.0482C141.445 37.6481 141.887 38.19 142.501 38.2592C142.536 38.2629 145.697 38.6331 149.477 40.1211C146.066 40.2594 142.307 41.7524 139.233 44.2683C134.56 48.0927 131.872 53.8637 131.665 60.5189C131.44 67.76 134.361 72.7701 136.851 75.6977C138.028 77.0816 139.215 78.1392 140.191 78.8979C139.589 78.9928 139.253 79.0502 139.241 79.0525C138.563 79.1689 138.111 79.7994 138.23 80.4603C138.337 81.0504 138.862 81.4655 139.455 81.4655C139.527 81.4655 139.6 81.4595 139.673 81.4468C139.723 81.4381 144.734 80.5826 151.417 79.9207C158.083 79.2603 163.425 79.1848 163.478 79.1839C164.166 79.1753 164.717 78.6238 164.707 77.9524C164.698 77.2817 164.139 76.7348 163.446 76.7533" fill="black"/>
  <path fill-rule="evenodd" clip-rule="evenodd" d="M141.964 28.5256C143.233 26.9157 144.729 25.4662 146.359 24.3564C147.172 23.803 148.039 23.3325 148.953 23.044C149.677 22.8156 150.402 22.7493 151.149 22.7458C152.007 22.7418 152.871 22.7896 153.7 23.0587C154.593 23.3484 155.391 23.8737 156.146 24.4822C156.911 25.0979 157.639 25.7728 158.329 26.4955C158.911 27.1059 159.443 27.8123 160.098 28.3232C160.844 28.9048 161.688 29.3025 162.545 29.615C163.002 29.7821 163.468 29.9194 163.938 30.0371C164.413 30.1556 164.897 30.2223 165.372 30.339C165.726 30.4263 165.842 30.9125 165.513 31.1477C165.126 31.4237 164.659 31.6101 164.231 31.7797C163.358 32.1251 162.437 32.3444 161.515 32.4189C160.525 32.499 159.521 32.4126 158.559 32.1251C157.881 31.9227 157.256 31.5983 156.631 31.2444C155.785 30.766 154.982 30.216 154.216 29.5847C153.557 29.0415 152.922 28.4784 152.187 28.0751C151.56 27.7313 150.884 27.4472 150.21 27.2476C149.313 26.9817 148.31 27.2022 147.428 27.4419C146.457 27.705 145.518 28.0914 144.597 28.5269C144.143 28.7418 143.693 28.9693 143.249 29.2124C142.931 29.3866 142.525 29.7527 142.156 29.5656C141.806 29.3876 141.708 28.852 141.964 28.5256Z" fill="black"/>
  <path fill-rule="evenodd" clip-rule="evenodd" d="M198.438 59.292C197.898 63.9004 195.367 67.4034 192.785 67.1163C190.203 66.8288 188.547 62.8602 189.086 58.2516C189.626 53.6433 192.156 50.1402 194.739 50.4277C197.321 50.7148 198.977 54.6837 198.438 59.292" fill="black"/>
  <path fill-rule="evenodd" clip-rule="evenodd" d="M219.922 59.1888C219.422 63.8005 217.465 67.3524 215.551 67.1221C213.637 66.8922 212.49 62.9668 212.989 58.3554C213.489 53.7437 215.446 50.1918 217.36 50.4217C219.274 50.652 220.421 54.5771 219.922 59.1888" fill="black"/>
  <path fill-rule="evenodd" clip-rule="evenodd" d="M209.649 67.2646C208.379 69.1023 206.119 69.9986 204.601 69.266C203.083 68.5335 202.882 66.45 204.152 64.6122C205.421 62.7741 207.681 61.8782 209.199 62.6107C210.717 63.3432 210.918 65.4268 209.649 67.2646" fill="black"/>
  <path fill-rule="evenodd" clip-rule="evenodd" d="M200.928 73.1046C200.928 75.0834 199.859 76.6879 198.539 76.6879C197.22 76.6879 196.151 75.0834 196.151 73.1046C196.151 71.1258 197.22 69.5215 198.539 69.5215C199.859 69.5215 200.928 71.1258 200.928 73.1046" fill="black"/>
  <path fill-rule="evenodd" clip-rule="evenodd" d="M210.156 72.5605C209.489 73.8296 208.026 74.5674 206.888 74.2083C205.749 73.8493 205.367 72.5292 206.033 71.2602C206.7 69.9909 208.163 69.2533 209.301 69.6124C210.44 69.9714 210.822 71.2915 210.156 72.5605" fill="black"/>
  <path fill-rule="evenodd" clip-rule="evenodd" d="M37.765 159.481H69.1545C67.7788 153.085 63.6277 140.251 52.4651 140.251C38.1071 140.251 37.2238 152.817 37.765 159.481Z" fill="white"/>
  <path fill-rule="evenodd" clip-rule="evenodd" d="M196.185 159.481H227.771C228.043 153.68 227.073 141.942 214.924 140.997C201.159 139.927 197.221 153.769 196.185 159.481Z" fill="white"/>
  <path fill-rule="evenodd" clip-rule="evenodd" d="M227.083 159.481C227.175 155.719 226.731 150.116 223.842 146.176C221.794 143.384 218.756 141.805 214.813 141.486C207.887 140.924 202.67 144.313 199.309 151.56C197.989 154.406 197.221 157.311 196.785 159.481H194.235C194.681 157.103 195.522 153.74 197.069 150.405C200.869 142.211 207.07 138.22 215.005 138.864C219.685 139.244 223.324 141.166 225.822 144.577C228.099 147.687 229.358 151.91 229.565 157.128C229.598 157.962 229.6 158.753 229.584 159.481H227.083Z" fill="black"/>
  <path fill-rule="evenodd" clip-rule="evenodd" d="M50.4595 68.6568C50.648 69.6731 52.1384 71.1089 53.6711 72.2629C55.2039 73.417 57.2478 74.6427 57.5397 74.2102C57.9051 73.6685 56.5543 70.9648 55.3135 64.041C54.0864 57.1948 53.8054 47.8008 53.3873 48.0264C52.6757 48.4109 52.5641 51.2526 51.5543 59.0542C50.6303 66.192 50.3401 68.0129 50.4595 68.6568" fill="#819396"/>
  <path fill-rule="evenodd" clip-rule="evenodd" d="M56.8207 36.0779C55.7703 35.9682 54.9517 28.077 55.288 23.3705C55.6244 18.664 56.2224 15.2126 56.8207 14.6635C57.419 14.1144 69.3062 16.389 69.5305 17.4088C69.7548 18.4286 67.2131 20.3114 62.8766 25.8021C60.5506 28.7478 57.5155 36.1502 56.8207 36.0779" fill="#819396"/>
  <path fill-rule="evenodd" clip-rule="evenodd" d="M239.034 159.481C238.94 156.929 238.442 154.104 237.002 151.966C235.81 150.196 234.146 149.136 231.914 148.724C227.934 147.99 224.937 148.607 223.003 150.556C220.749 152.828 220.203 156.593 220.141 159.35C220.14 159.394 220.139 159.438 220.138 159.481H217.654C217.712 155.948 218.45 151.639 221.235 148.831C223.782 146.263 227.528 145.414 232.367 146.306C235.253 146.838 237.507 148.285 239.068 150.606C240.826 153.22 241.416 156.547 241.52 159.481H239.034Z" fill="black"/>
  <path fill-rule="evenodd" clip-rule="evenodd" d="M239.484 159.481C239.365 154.928 237.98 149.269 232.047 148.16C221.791 146.242 219.989 153.984 219.952 159.481H239.484Z" fill="white"/>
  <path fill-rule="evenodd" clip-rule="evenodd" d="M41.8533 145.668C44.1916 142.768 47.8508 141.298 52.7295 141.298C58.5564 141.298 63.1198 144.941 66.2928 152.126C67.4536 154.754 68.21 157.406 68.6859 159.481H70.8056C70.3087 157.383 69.6101 154.958 68.642 152.518C65.08 143.542 59.5775 138.797 52.7294 138.797C47.0343 138.797 42.7049 140.781 39.8613 144.694C37.3564 148.141 36.0912 152.932 36.1014 158.934C36.1017 159.118 36.1032 159.301 36.1059 159.481H38.7483C38.4396 155.561 38.6439 149.648 41.8533 145.668Z" fill="black"/>
  <path fill-rule="evenodd" clip-rule="evenodd" d="M25.9841 159.481H48.2661C46.4606 153.981 42.6161 146.79 35.0361 148.184C28.1793 149.446 26.3295 155.023 25.9841 159.481Z" fill="white"/>
  <path fill-rule="evenodd" clip-rule="evenodd" d="M48.5525 159.481C47.3576 156.08 45.4424 152.258 42.4947 150.131C40.4766 148.674 38.2491 148.195 35.6842 148.665C32.7309 149.205 30.4746 150.597 28.9781 152.8C27.6131 154.81 27.0213 157.251 26.8072 159.481H24.2515C24.4801 156.851 25.1755 153.893 26.8699 151.393C28.7621 148.6 31.5732 146.845 35.2257 146.177C38.4646 145.584 41.4128 146.225 43.987 148.085C46.9561 150.23 49.3453 153.917 51.0883 159.045C51.1381 159.191 51.1866 159.337 51.2339 159.481H48.5525Z" fill="black"/>
  <path fill-rule="evenodd" clip-rule="evenodd" d="M79.2329 159.481C78.3199 154.893 75.8777 148.613 69.3452 147.839C59.54 146.677 56.3484 153.869 55.3372 159.481H79.2329Z" fill="white"/>
  <path fill-rule="evenodd" clip-rule="evenodd" d="M59.9213 151.331C61.7623 149.559 64.189 148.666 67.1539 148.666C67.7797 148.666 68.4295 148.706 69.1027 148.785C74.9097 149.473 77.2462 155.113 78.1859 159.481H80.9247C80.7196 158.425 80.4399 157.28 80.0585 156.118C78.1011 150.158 74.4206 146.695 69.4137 146.103C64.7215 145.547 60.9052 146.651 58.0728 149.382C55.6654 151.704 54.0586 155.1 53.2925 159.481H56.0124C56.5627 156.646 57.6801 153.489 59.9213 151.331Z" fill="black"/>
  <path fill-rule="evenodd" clip-rule="evenodd" d="M93.3323 137.472C93.0147 136.811 90.9755 136.408 88.7307 137.472C87.9841 137.826 87.509 139.02 87.5665 140.487C87.5915 141.124 88.6919 153.488 102.522 159.481H141.352C156.964 153.902 160.225 142.8 160.821 140.773C160.855 140.656 160.881 140.569 160.899 140.515C161.348 139.211 160.114 137.2 157.981 136.626C155.38 135.927 154.277 136.983 153.66 138.722C150.91 146.709 145.523 155.675 120.55 155.675C97.6867 155.675 95.1289 144.695 93.9251 139.527C93.7195 138.645 93.5534 137.932 93.3323 137.472Z" fill="#D40005"/>
  <path fill-rule="evenodd" clip-rule="evenodd" d="M88.8706 139.722C88.8258 138.498 89.1866 137.829 89.3201 137.73C90.7426 137.009 91.8778 137.122 92.262 137.273C92.4026 137.678 92.5461 138.339 92.6968 139.033L92.6973 139.035C93.3096 141.855 94.3343 146.574 98.2844 150.514C102.939 155.157 110.494 157.511 120.739 157.511C132.346 157.511 140.776 155.497 146.51 151.355C151.749 147.57 153.878 142.629 155.264 138.308C155.832 136.592 156.577 136.49 158.032 136.91C158.83 137.14 159.524 137.704 159.891 138.419C160.116 138.859 160.134 139.21 160.081 139.376C160.058 139.446 160.027 139.559 159.985 139.712C158.396 145.513 155.052 149.604 152.526 152.015C149.121 155.265 144.914 157.757 139.936 159.481H146.662C149.508 157.962 152.052 156.136 154.285 154.005C157.058 151.358 160.731 146.859 162.485 140.451C162.492 140.427 162.498 140.404 162.504 140.382C162.522 140.316 162.536 140.265 162.548 140.23C162.85 139.289 162.721 138.195 162.186 137.15C161.481 135.774 160.221 134.737 158.728 134.307C155.766 133.452 153.773 134.502 152.801 137.441C151.545 141.354 149.64 145.803 145.025 149.137C139.741 152.954 131.797 154.809 120.739 154.809C111.188 154.809 104.239 152.708 100.085 148.565C96.6986 145.188 95.8169 141.128 95.2336 138.441L95.2326 138.436C95.007 137.397 94.8288 136.577 94.5479 135.95C94.3771 135.568 93.9903 135.046 93.1205 134.727C92.0515 134.334 90.1894 134.28 88.1699 135.307H88.1702C86.9206 135.943 86.193 137.674 86.2719 139.825C86.2743 139.89 86.6425 146.492 91.3962 152.91C93.3107 155.495 95.664 157.696 98.4192 159.481H104.094C99.7062 157.631 96.1582 154.898 93.4795 151.292C89.2204 145.56 88.873 139.779 88.8706 139.722Z" fill="black"/>
  <path fill-rule="evenodd" clip-rule="evenodd" d="M184.465 159.481H210.138C209.318 155.123 206.551 147.861 197.218 147.861C187.732 147.861 185.162 155.345 184.465 159.481Z" fill="white"/>
  <path fill-rule="evenodd" clip-rule="evenodd" d="M209.604 159.481C209.03 156.938 207.86 153.784 205.474 151.527C203.369 149.536 200.588 148.527 197.207 148.527C193.846 148.527 191.092 149.522 189.022 151.484C186.603 153.775 185.488 156.997 184.974 159.481H182.201C182.737 156.589 184.019 152.597 187.086 149.685C189.686 147.215 193.091 145.963 197.207 145.963C201.342 145.963 204.774 147.229 207.408 149.726C210.432 152.593 211.783 156.507 212.386 159.481H209.604Z" fill="black"/>
  <path fill-rule="evenodd" clip-rule="evenodd" d="M264.092 159.481C266.629 148.239 268.835 129.843 261.473 114.472C252.82 96.4009 229.594 91.0207 229.594 91.0207C229.594 91.0207 252.487 104.693 254.968 130.436C256.067 141.849 253.481 152.423 251.013 159.481H264.092Z" fill="white"/>
  <path fill-rule="evenodd" clip-rule="evenodd" d="M262.911 159.481C263.442 157.084 263.953 154.388 264.359 151.488C265.755 141.519 266.167 127.027 260.198 114.602C255.754 105.354 247.331 99.496 241.048 96.2102C239.183 95.235 237.39 94.4216 235.766 93.7541C237.537 95.2796 239.527 97.156 241.558 99.3821C247.366 105.75 254.575 116.285 255.93 130.309C256.991 141.282 254.735 151.476 252.657 158.095C252.508 158.569 252.358 159.031 252.208 159.481H249.467C251.927 152.346 254.455 141.815 253.367 130.563C252.084 117.291 245.238 107.276 239.721 101.212C233.699 94.5914 227.897 91.093 227.839 91.0583C227.292 90.732 227.061 90.0508 227.296 89.454C227.531 88.8571 228.16 88.5213 228.779 88.665C229.03 88.7229 235.005 90.1267 242.168 93.8621C248.821 97.3316 257.75 103.548 262.514 113.462C265.971 120.658 269.538 133.17 266.9 151.916C266.516 154.65 266.046 157.194 265.553 159.481H262.911Z" fill="black"/>
  </svg>
  